<svg font-family="sans-serif" viewBox="0 0 753 407" xmlns:xlink="http://www.w3.org/1999/xlink" text-decoration="none" font-style="normal" width="753px" xmlns="http://www.w3.org/2000/svg" font-size="15" version="1.1" font-weight="normal" height="407px"><title>Average High and Low Temperature in Salt Lake City</title><defs><clipPath id="plot-sample-bounds-2"><rect y="0" x="75.8" height="385" width="601.3"></rect></clipPath><clipPath id="plot-sample-bounds-scaled-2"><rect y="0" x="758.3" height="3850" width="6013.5"></rect></clipPath></defs><g transform="scale(0.1)"><path fill-opacity="0.188" stroke="none" d="M758,3253l17,6l16,8l17,4l16,2l17,7l16,4l17,0l16,-2l17,-2l16,-4l17,-6l17,-3l16,-4l17,4l16,-2l17,-5l16,-2l17,-4l16,-1l17,1l16,-1l17,0l16,1l17,3l16,-2l17,0l16,0l17,-6l16,-6l17,-2l16,-6l17,-13l16,-14l17,-12l16,-14l17,-15l17,-12l16,-11l17,-8l16,-13l17,-7l16,-2l17,-4l16,-7l17,-14l16,-10l17,-6l16,-14l17,-13l16,-13l17,-14l16,-12l17,-13l16,-17l17,-16l16,-11l17,-12l16,-17l17,-12l16,-12l17,-14l17,-13l16,-10l17,-7l16,-6l17,-6l16,-5l17,-7l16,-8l17,-7l16,-4l17,-7l16,-8l17,-13l16,-7l17,-6l16,-7l17,-9l16,-8l17,-4l16,-5l17,-6l16,-5l17,-6l17,0l16,-4l17,-4l16,-6l17,-2l16,-2l17,-3l16,-6l17,-3l16,-3l17,-6l16,-5l17,-10l16,-7l17,-5l16,-4l17,-5l16,-5l17,-5l16,-7l17,-8l16,-6l17,-8l16,-7l17,-8l17,-4l16,-6l17,-5l16,-6l17,-8l16,-5l17,-8l16,-5l17,-8l16,-10l17,-11l16,-7l17,-10l16,-7l17,-8l16,-9l17,-8l16,-6l17,-8l16,-4l17,-10l16,-9l17,-13l16,-10l17,-11l17,-10l16,-9l17,-11l16,-9l17,-8l16,-10l17,-10l16,-6l17,-10l16,-7l17,-5l16,-13l17,-10l16,-8l17,-9l16,-7l17,-7l16,-6l17,-6l16,-13l17,-9l16,-9l17,-11l17,-13l16,-8l17,-12l16,-9l17,-13l16,-10l17,-11l16,-10l17,-12l16,-9l17,-9l16,-6l17,-11l16,-11l17,-11l16,-15l17,-13l16,-17l17,-13l16,-9l17,-11l16,-11l17,-11l16,-15l17,-11l17,-15l16,-13l17,-7l16,-10l17,-8l16,-6l17,-8l16,-8l17,-9l16,-1l17,-2l16,-7l17,-6l16,-6l17,-6l16,-6l17,-4l16,-7l17,-6l16,-2l17,-5l16,0l17,7l16,4l17,-3l17,-1l16,-3l17,-2l16,0l17,3l16,2l17,5l16,3l17,1l16,1l17,3l16,3l17,7l16,4l17,5l16,1l17,5l16,6l17,6l16,8l17,7l16,9l17,7l17,11l16,11l17,7l16,11l17,10l16,1l17,6l16,13l17,10l16,14l17,13l16,12l17,13l16,12l17,11l16,13l17,16l16,16l17,16l16,13l17,13l16,15l17,16l16,12l17,15l17,20l16,16l17,12l16,11l17,10l16,13l17,13l16,14l17,13l16,15l17,9l16,13l17,13l16,13l17,15l16,11l17,11l16,12l17,14l16,12l17,9l16,11l17,10l16,11l17,9l17,13l16,8l17,9l16,7l17,11l16,8l17,8l16,12l17,10l16,15l17,16l16,12l17,6l16,9l17,12l16,6l17,10l16,10l17,8l16,9l17,9l16,10l17,11l17,12l16,10l17,11l16,15l17,14l16,9l17,12l16,12l17,13l16,10l17,16l16,15l17,14l16,10l17,12l16,11l17,10l16,7l17,9l16,12l17,13l16,12l17,8l16,18l17,15l17,16l16,12l17,7l16,7l17,11l16,4l17,8l16,8l17,7l16,5l17,12l16,9l17,7l16,7l17,8l16,14l17,6l16,7l17,6l16,10l17,4l16,3l17,12l16,11l17,10l17,5l16,3l17,4l16,6l17,0l16,-1l17,-1l16,2l17,7l16,7l17,2l0,-680l-17,3l-16,-2l-17,-4l-16,-4l-17,-1l-16,-5l-17,-3l-16,-2l-17,-5l-16,-8l-17,-4l-17,-5l-16,-9l-17,-7l-16,5l-17,0l-16,-2l-17,-3l-16,-4l-17,-6l-16,-8l-17,-6l-16,-6l-17,-10l-16,-9l-17,-7l-16,-11l-17,-6l-16,-14l-17,-4l-16,-7l-17,-8l-16,-5l-17,-7l-16,-4l-17,-6l-17,-4l-16,-13l-17,-12l-16,-11l-17,-5l-16,-7l-17,-5l-16,-11l-17,-9l-16,-6l-17,-11l-16,-13l-17,-14l-16,-8l-17,-9l-16,-14l-17,-9l-16,-11l-17,-6l-16,-12l-17,-9l-16,-7l-17,-13l-16,-8l-17,-12l-17,-13l-16,-10l-17,-8l-16,-11l-17,-12l-16,-11l-17,-6l-16,-6l-17,-6l-16,-8l-17,-11l-16,-14l-17,-12l-16,-9l-17,-11l-16,-7l-17,-12l-16,-10l-17,-7l-16,-15l-17,-12l-16,-9l-17,-12l-17,-10l-16,-11l-17,-7l-16,-13l-17,-13l-16,-15l-17,-10l-16,-13l-17,-10l-16,-17l-17,-16l-16,-11l-17,-9l-16,-13l-17,-17l-16,-14l-17,-15l-16,-17l-17,-13l-16,-11l-17,-17l-16,-10l-17,-10l-16,-18l-17,-10l-17,-10l-16,-11l-17,-11l-16,-7l-17,-11l-16,-12l-17,-13l-16,-10l-17,-12l-16,-10l-17,-7l-16,-6l-17,-13l-16,-9l-17,-10l-16,-2l-17,-7l-16,-8l-17,-10l-16,-6l-17,-8l-16,-8l-17,-3l-16,-1l-17,-3l-17,-5l-16,1l-17,-4l-16,-3l-17,-1l-16,-3l-17,-2l-16,-3l-17,0l-16,-4l-17,-5l-16,-4l-17,-1l-16,-4l-17,-3l-16,-2l-17,-2l-16,-2l-17,0l-16,-3l-17,0l-16,-2l-17,1l-17,1l-16,0l-17,0l-16,1l-17,-2l-16,-1l-17,-2l-16,-5l-17,1l-16,-1l-17,2l-16,-1l-17,3l-16,2l-17,0l-16,0l-17,2l-16,2l-17,6l-16,6l-17,6l-16,8l-17,4l-16,6l-17,8l-17,10l-16,9l-17,12l-16,6l-17,8l-16,11l-17,5l-16,6l-17,7l-16,11l-17,11l-16,7l-17,13l-16,14l-17,13l-16,11l-17,10l-16,17l-17,11l-16,4l-17,9l-16,13l-17,10l-16,12l-17,9l-17,14l-16,12l-17,5l-16,8l-17,9l-16,5l-17,3l-16,3l-17,5l-16,7l-17,7l-16,7l-17,15l-16,12l-17,8l-16,6l-17,8l-16,11l-17,8l-16,8l-17,-1l-16,12l-17,7l-17,9l-16,8l-17,17l-16,13l-17,7l-16,11l-17,3l-16,8l-17,2l-16,5l-17,8l-16,9l-17,7l-16,13l-17,10l-16,9l-17,8l-16,9l-17,5l-16,7l-17,6l-16,7l-17,9l-16,6l-17,9l-17,8l-16,8l-17,9l-16,9l-17,8l-16,9l-17,4l-16,9l-17,6l-16,3l-17,3l-16,-3l-17,7l-16,10l-17,7l-16,6l-17,10l-16,12l-17,4l-16,2l-17,4l-16,10l-17,5l-16,9l-17,6l-17,5l-16,8l-17,8l-16,7l-17,9l-16,5l-17,5l-16,2l-17,4l-16,9l-17,4l-16,6l-17,7l-16,5l-17,7l-16,11l-17,10l-16,16l-17,7l-16,4l-17,7l-16,3l-17,0l-17,6l-16,8l-17,9l-16,14l-17,9l-16,9l-17,6l-16,10l-17,8l-16,7l-17,7l-16,8l-17,6l-16,6l-17,8l-16,9l-17,8l-16,8l-17,5l-16,4l-17,4l-16,3l-17,3l-16,3l-17,9l-17,4l-16,6l-17,5l-16,2l-17,5l-16,10l-17,5l-16,0l-17,3l-16,0l-17,0l-16,1l-17,3l-16,3l-17,4l-16,2l-17,1l-16,1l-17,0l-16,4l-17,1l-16,-14l-17,-2l-16,-3l-17,-1l-17,2l-16,2l-17,7l-16,2l-17,2l-16,-4l-17,1l-16,1l-17,3l-16,1l-17,8Z" fill="#4646b9"></path><path fill-opacity="0.188" stroke="none" d="M758,3060l17,3l16,2l17,1l16,3l17,1l16,2l17,-1l16,0l17,-3l16,-4l17,-6l17,-1l16,1l17,0l16,-4l17,-1l16,2l17,-4l16,-1l17,2l16,0l17,-1l16,-2l17,-2l16,0l17,2l16,-5l17,-4l16,-7l17,-2l16,-6l17,-11l16,-8l17,-9l16,-10l17,-8l17,-9l16,-9l17,-8l16,-7l17,-6l16,-6l17,-6l16,-10l17,-8l16,-7l17,-9l16,-12l17,-10l16,-13l17,-12l16,-11l17,-11l16,-11l17,-11l16,-12l17,-13l16,-13l17,-13l16,-8l17,-12l17,-9l16,-6l17,-7l16,-7l17,-8l16,-8l17,-7l16,-5l17,-7l16,-6l17,-7l16,-6l17,-7l16,-6l17,-4l16,-7l17,-7l16,-7l17,-5l16,-3l17,-3l16,-6l17,-4l17,-5l16,-5l17,0l16,-4l17,-1l16,-2l17,-3l16,-4l17,-3l16,-6l17,-5l16,-4l17,-7l16,-6l17,-6l16,-7l17,-5l16,-7l17,-3l16,-6l17,-7l16,-5l17,-10l16,-7l17,-6l17,-9l16,-5l17,-5l16,-9l17,-8l16,-7l17,-5l16,-5l17,-9l16,-10l17,-11l16,-11l17,-10l16,-10l17,-10l16,-9l17,-7l16,-8l17,-8l16,-5l17,-9l16,-10l17,-11l16,-7l17,-11l17,-10l16,-12l17,-10l16,-7l17,-12l16,-10l17,-5l16,-11l17,-9l16,-7l17,-8l16,-9l17,-7l16,-11l17,-9l16,-8l17,-9l16,-5l17,-5l16,-9l17,-9l16,-8l17,-10l17,-9l16,-12l17,-13l16,-8l17,-9l16,-10l17,-15l16,-14l17,-12l16,-10l17,-12l16,-11l17,-7l16,-11l17,-14l16,-12l17,-12l16,-15l17,-12l16,-11l17,-12l16,-9l17,-12l16,-12l17,-10l17,-12l16,-11l17,-7l16,-8l17,-7l16,-7l17,-8l16,-6l17,-7l16,-7l17,-7l16,-5l17,-2l16,0l17,-6l16,-4l17,-3l16,-3l17,-5l16,0l17,-2l16,0l17,1l16,2l17,0l17,0l16,0l17,-2l16,-1l17,0l16,3l17,4l16,0l17,1l16,0l17,2l16,2l17,6l16,6l17,4l16,4l17,5l16,5l17,6l16,5l17,7l16,8l17,10l17,6l16,6l17,7l16,10l17,7l16,7l17,8l16,11l17,10l16,13l17,11l16,13l17,12l16,12l17,11l16,14l17,14l16,15l17,15l16,12l17,11l16,13l17,17l16,14l17,15l17,14l16,13l17,10l16,11l17,12l16,11l17,13l16,18l17,13l16,15l17,14l16,12l17,14l16,9l17,12l16,9l17,12l16,14l17,12l16,13l17,12l16,11l17,11l16,10l17,7l17,11l16,12l17,11l16,8l17,11l16,11l17,9l16,12l17,13l16,15l17,13l16,13l17,10l16,7l17,10l16,7l17,7l16,10l17,8l16,9l17,10l16,10l17,11l17,11l16,9l17,9l16,9l17,9l16,10l17,12l16,13l17,13l16,10l17,10l16,13l17,10l16,10l17,10l16,9l17,11l16,9l17,9l16,12l17,12l16,11l17,9l16,12l17,12l17,13l16,14l17,10l16,9l17,10l16,6l17,7l16,13l17,8l16,9l17,10l16,7l17,7l16,9l17,6l16,9l17,9l16,9l17,5l16,5l17,6l16,8l17,5l16,6l17,7l17,1l16,3l17,3l16,4l17,4l16,2l17,-1l16,-1l17,7l16,3l17,3l0,-337l-17,-2l-16,-3l-17,-4l-16,-3l-17,-2l-16,-4l-17,-2l-16,-2l-17,-4l-16,-6l-17,-4l-17,-4l-16,-6l-17,-4l-16,-1l-17,-2l-16,-2l-17,-2l-16,-4l-17,-7l-16,-7l-17,-7l-16,-6l-17,-8l-16,-7l-17,-7l-16,-7l-17,-9l-16,-8l-17,-3l-16,-5l-17,-9l-16,-6l-17,-5l-16,-5l-17,-7l-17,-6l-16,-9l-17,-11l-16,-8l-17,-5l-16,-8l-17,-9l-16,-11l-17,-10l-16,-11l-17,-13l-16,-14l-17,-15l-16,-11l-17,-10l-16,-11l-17,-10l-16,-10l-17,-13l-16,-8l-17,-9l-16,-9l-17,-9l-16,-10l-17,-13l-17,-11l-16,-8l-17,-10l-16,-12l-17,-13l-16,-10l-17,-6l-16,-9l-17,-9l-16,-11l-17,-10l-16,-14l-17,-12l-16,-13l-17,-11l-16,-9l-17,-11l-16,-11l-17,-8l-16,-15l-17,-13l-16,-12l-17,-11l-17,-10l-16,-9l-17,-12l-16,-13l-17,-16l-16,-13l-17,-13l-16,-12l-17,-14l-16,-14l-17,-10l-16,-10l-17,-8l-16,-11l-17,-15l-16,-15l-17,-12l-16,-15l-17,-13l-16,-13l-17,-15l-16,-11l-17,-10l-16,-15l-17,-10l-17,-10l-16,-14l-17,-11l-16,-9l-17,-11l-16,-12l-17,-15l-16,-13l-17,-12l-16,-10l-17,-9l-16,-11l-17,-11l-16,-12l-17,-8l-16,-6l-17,-8l-16,-11l-17,-11l-16,-10l-17,-9l-16,-7l-17,-6l-16,-3l-17,-7l-17,-4l-16,-5l-17,-5l-16,-6l-17,-1l-16,-2l-17,-5l-16,-2l-17,-1l-16,-3l-17,-5l-16,-4l-17,-3l-16,-2l-17,-1l-16,-2l-17,-2l-16,0l-17,-1l-16,-2l-17,1l-16,-3l-17,-3l-17,2l-16,2l-17,0l-16,2l-17,1l-16,0l-17,1l-16,-2l-17,0l-16,4l-17,3l-16,0l-17,1l-16,2l-17,2l-16,4l-17,1l-16,2l-17,6l-16,8l-17,8l-16,8l-17,4l-16,6l-17,6l-17,8l-16,11l-17,13l-16,7l-17,9l-16,10l-17,8l-16,8l-17,10l-16,8l-17,9l-16,10l-17,9l-16,14l-17,13l-16,12l-17,10l-16,14l-17,10l-16,12l-17,10l-16,11l-17,9l-16,15l-17,9l-17,11l-16,10l-17,6l-16,12l-17,10l-16,6l-17,5l-16,4l-17,4l-16,8l-17,8l-16,9l-17,10l-16,11l-17,10l-16,10l-17,11l-16,7l-17,10l-16,7l-17,8l-16,8l-17,8l-17,10l-16,12l-17,9l-16,11l-17,12l-16,10l-17,4l-16,8l-17,7l-16,8l-17,9l-16,6l-17,8l-16,10l-17,12l-16,9l-17,12l-16,6l-17,5l-16,6l-17,7l-16,8l-17,7l-16,6l-17,3l-17,9l-16,9l-17,8l-16,8l-17,9l-16,13l-17,6l-16,7l-17,5l-16,5l-17,1l-16,6l-17,8l-16,7l-17,4l-16,6l-17,9l-16,9l-17,5l-16,4l-17,3l-16,6l-17,6l-16,7l-17,8l-17,6l-16,6l-17,7l-16,5l-17,6l-16,8l-17,6l-16,2l-17,5l-16,6l-17,4l-16,4l-17,6l-16,5l-17,8l-16,9l-17,9l-16,8l-17,7l-16,6l-17,10l-16,7l-17,3l-17,3l-16,8l-17,7l-16,10l-17,8l-16,6l-17,6l-16,7l-17,10l-16,9l-17,7l-16,8l-17,9l-16,10l-17,8l-16,9l-17,5l-16,8l-17,4l-16,3l-17,3l-16,3l-17,3l-16,5l-17,8l-17,3l-16,7l-17,5l-16,3l-17,2l-16,7l-17,6l-16,7l-17,4l-16,3l-17,2l-16,1l-17,3l-16,4l-17,1l-16,-1l-17,0l-16,4l-17,2l-16,2l-17,0l-16,-4l-17,2l-16,-1l-17,1l-17,3l-16,4l-17,5l-16,2l-17,1l-16,1l-17,1l-16,0l-17,3l-16,2l-17,4Z" fill="#4646b9"></path><g clip-path="url(#plot-sample-bounds-scaled-2)"><path stroke-width="20" stroke="#4646b9" d="M758,2899l17,0l16,0l17,1l16,1l17,1l16,0l17,-1l16,-2l17,-4l16,-5l17,-4l17,-1l16,0l17,-1l16,1l17,-2l16,0l17,-3l16,-2l17,1l16,0l17,-2l16,-1l17,-1l16,0l17,-1l16,-3l17,-4l16,-6l17,-3l16,-7l17,-7l16,-6l17,-7l16,-9l17,-5l17,-9l16,-7l17,-6l16,-6l17,-4l16,-5l17,-5l16,-8l17,-9l16,-10l17,-7l16,-11l17,-10l16,-10l17,-10l16,-10l17,-11l16,-11l17,-9l16,-9l17,-10l16,-11l17,-10l16,-8l17,-8l17,-7l16,-6l17,-7l16,-7l17,-8l16,-9l17,-7l16,-7l17,-7l16,-5l17,-6l16,-6l17,-7l16,-6l17,-5l16,-3l17,-7l16,-7l17,-7l16,-5l17,-6l16,-6l17,-4l17,-5l16,-7l17,-5l16,-5l17,-4l16,-3l17,-4l16,-8l17,-6l16,-6l17,-6l16,-6l17,-7l16,-5l17,-5l16,-5l17,-6l16,-7l17,-6l16,-8l17,-8l16,-7l17,-8l16,-8l17,-8l17,-7l16,-6l17,-7l16,-7l17,-7l16,-7l17,-5l16,-5l17,-8l16,-9l17,-11l16,-10l17,-8l16,-8l17,-9l16,-8l17,-7l16,-7l17,-7l16,-7l17,-10l16,-10l17,-13l16,-9l17,-9l17,-9l16,-9l17,-8l16,-8l17,-10l16,-10l17,-7l16,-8l17,-9l16,-10l17,-10l16,-9l17,-9l16,-10l17,-7l16,-6l17,-7l16,-6l17,-7l16,-9l17,-8l16,-9l17,-10l17,-9l16,-12l17,-12l16,-10l17,-9l16,-8l17,-12l16,-14l17,-11l16,-11l17,-11l16,-12l17,-9l16,-10l17,-11l16,-10l17,-10l16,-12l17,-9l16,-10l17,-11l16,-9l17,-10l16,-11l17,-10l17,-10l16,-9l17,-6l16,-8l17,-8l16,-8l17,-8l16,-4l17,-5l16,-3l17,-5l16,-4l17,-3l16,-2l17,-3l16,-3l17,-3l16,-1l17,-2l16,-1l17,-2l16,-1l17,1l16,0l17,-1l17,1l16,1l17,-1l16,0l17,2l16,1l17,2l16,2l17,2l16,2l17,2l16,4l17,5l16,4l17,3l16,4l17,4l16,4l17,4l16,5l17,6l16,6l17,7l17,7l16,5l17,6l16,9l17,7l16,7l17,10l16,10l17,8l16,10l17,9l16,11l17,12l16,9l17,10l16,12l17,13l16,13l17,14l16,13l17,11l16,11l17,13l16,12l17,12l17,13l16,13l17,12l16,10l17,13l16,11l17,14l16,16l17,13l16,15l17,15l16,11l17,11l16,12l17,12l16,12l17,12l16,13l17,12l16,14l17,13l16,12l17,12l16,9l17,10l17,11l16,11l17,11l16,12l17,10l16,11l17,10l16,10l17,12l16,14l17,14l16,13l17,10l16,9l17,9l16,7l17,8l16,9l17,11l16,10l17,10l16,9l17,12l17,11l16,11l17,9l16,9l17,10l16,9l17,11l16,13l17,11l16,11l17,12l16,12l17,13l16,11l17,12l16,11l17,9l16,9l17,8l16,9l17,9l16,9l17,11l16,11l17,10l17,11l16,8l17,7l16,7l17,9l16,7l17,6l16,10l17,8l16,8l17,9l16,8l17,8l16,7l17,7l16,8l17,7l16,6l17,4l16,6l17,5l16,4l17,6l16,7l17,6l17,4l16,4l17,4l16,4l17,2l16,2l17,0l16,2l17,4l16,4l17,2" fill="none" stroke-opacity="1.0"></path></g><path fill-opacity="0.188" stroke="none" d="M758,2840l17,5l16,4l17,2l16,2l17,0l16,-2l17,-2l16,-3l17,-5l16,-4l17,-5l17,-3l16,0l17,-5l16,-1l17,-5l16,-2l17,-6l16,-1l17,0l16,-2l17,-4l16,-2l17,0l16,-4l17,-3l16,-8l17,-9l16,-6l17,-6l16,-8l17,-11l16,-9l17,-10l16,-13l17,-8l17,-8l16,-8l17,-11l16,-7l17,-4l16,-5l17,-6l16,-7l17,-7l16,-9l17,-9l16,-14l17,-11l16,-13l17,-17l16,-15l17,-13l16,-14l17,-14l16,-14l17,-15l16,-13l17,-12l16,-10l17,-13l17,-13l16,-9l17,-13l16,-11l17,-9l16,-9l17,-7l16,-9l17,-5l16,-9l17,-11l16,-8l17,-11l16,-7l17,-10l16,-9l17,-10l16,-7l17,-5l16,-8l17,-7l16,-6l17,-5l17,-5l16,-6l17,-4l16,-5l17,0l16,-4l17,-6l16,-6l17,-5l16,-5l17,-6l16,-4l17,-6l16,-12l17,-12l16,-4l17,-8l16,-6l17,-7l16,-9l17,-11l16,-14l17,-7l16,-10l17,-5l17,-12l16,-9l17,-9l16,-6l17,-3l16,-4l17,-5l16,-10l17,-10l16,-10l17,-10l16,-13l17,-14l16,-10l17,-14l16,-18l17,-5l16,-10l17,-12l16,-7l17,-9l16,-14l17,-13l16,-13l17,-14l17,-14l16,-12l17,-12l16,-11l17,-11l16,-16l17,-8l16,-6l17,-8l16,-9l17,-14l16,-16l17,-12l16,-9l17,-10l16,-12l17,-16l16,-7l17,-13l16,-17l17,-10l16,-9l17,-19l17,-16l16,-14l17,-17l16,-16l17,-17l16,-19l17,-18l16,-16l17,-15l16,-14l17,-13l16,-19l17,-19l16,-14l17,-18l16,-21l17,-20l16,-18l17,-20l16,-16l17,-21l16,-18l17,-17l16,-13l17,-13l17,-18l16,-10l17,-9l16,-12l17,-7l16,-7l17,-9l16,-6l17,-7l16,-7l17,-5l16,-5l17,-2l16,-5l17,-7l16,-5l17,-5l16,-1l17,-1l16,-5l17,-5l16,-1l17,1l16,-3l17,-1l17,0l16,2l17,-2l16,0l17,3l16,6l17,1l16,1l17,4l16,6l17,0l16,0l17,9l16,5l17,10l16,4l17,3l16,2l17,2l16,6l17,11l16,11l17,8l17,9l16,6l17,13l16,13l17,13l16,9l17,16l16,17l17,19l16,13l17,16l16,18l17,11l16,16l17,20l16,20l17,19l16,19l17,16l16,20l17,13l16,17l17,15l16,23l17,19l17,21l16,22l17,27l16,16l17,14l16,20l17,18l16,25l17,17l16,20l17,15l16,16l17,12l16,17l17,12l16,15l17,16l16,20l17,19l16,14l17,8l16,10l17,11l16,11l17,16l17,12l16,17l17,15l16,15l17,7l16,19l17,19l16,14l17,10l16,17l17,20l16,14l17,12l16,12l17,15l16,13l17,15l16,17l17,17l16,13l17,19l16,18l17,14l17,9l16,14l17,10l16,18l17,17l16,16l17,16l16,16l17,18l16,14l17,15l16,19l17,19l16,14l17,14l16,15l17,10l16,9l17,9l16,13l17,16l16,15l17,13l16,13l17,11l17,12l16,13l17,7l16,4l17,9l16,11l17,12l16,7l17,13l16,9l17,12l16,11l17,9l16,8l17,9l16,9l17,7l16,5l17,5l16,6l17,6l16,7l17,10l16,10l17,9l17,6l16,2l17,4l16,3l17,1l16,3l17,2l16,1l17,6l16,7l17,3l0,-663l-17,0l-16,-5l-17,-4l-16,-3l-17,-5l-16,-9l-17,-5l-16,-9l-17,-7l-16,-5l-17,-6l-17,-10l-16,-7l-17,-11l-16,1l-17,-13l-16,-12l-17,-2l-16,-8l-17,-13l-16,-12l-17,-14l-16,-11l-17,-18l-16,-16l-17,-15l-16,-12l-17,-16l-16,-18l-17,-16l-16,-18l-17,-12l-16,-8l-17,-13l-16,-9l-17,-10l-17,-8l-16,-16l-17,-14l-16,-16l-17,-14l-16,-11l-17,-10l-16,-13l-17,-15l-16,-14l-17,-11l-16,-11l-17,-19l-16,-15l-17,-12l-16,-15l-17,-14l-16,-11l-17,-8l-16,-11l-17,-13l-16,-15l-17,-14l-16,-13l-17,-13l-17,-15l-16,-13l-17,-16l-16,-14l-17,-17l-16,-16l-17,-14l-16,-10l-17,-11l-16,-8l-17,-15l-16,-16l-17,-16l-16,-14l-17,-15l-16,-12l-17,-15l-16,-16l-17,-13l-16,-17l-17,-18l-16,-16l-17,-13l-17,-13l-16,-14l-17,-15l-16,-15l-17,-16l-16,-16l-17,-14l-16,-13l-17,-11l-16,-13l-17,-11l-16,-11l-17,-9l-16,-7l-17,-11l-16,-13l-17,-11l-16,-16l-17,-11l-16,-9l-17,-11l-16,-9l-17,-9l-16,-11l-17,-9l-17,-5l-16,-11l-17,-10l-16,-7l-17,-7l-16,-8l-17,-11l-16,-10l-17,-8l-16,-7l-17,-5l-16,-7l-17,-7l-16,-9l-17,-10l-16,-9l-17,-6l-16,-7l-17,-7l-16,-9l-17,-7l-16,-5l-17,-7l-16,-5l-17,-3l-17,-7l-16,-5l-17,-4l-16,-5l-17,-5l-16,-3l-17,-7l-16,-4l-17,-3l-16,-2l-17,-5l-16,-7l-17,-3l-16,-5l-17,-6l-16,-5l-17,-3l-16,-5l-17,-2l-16,-5l-17,-4l-16,-1l-17,-4l-17,-3l-16,-2l-17,-2l-16,0l-17,-1l-16,-2l-17,-2l-16,-3l-17,-2l-16,0l-17,-2l-16,2l-17,-2l-16,0l-17,2l-16,0l-17,2l-16,0l-17,2l-16,3l-17,5l-16,7l-17,3l-16,6l-17,3l-17,7l-16,7l-17,8l-16,9l-17,8l-16,9l-17,9l-16,6l-17,6l-16,5l-17,3l-16,9l-17,8l-16,11l-17,12l-16,8l-17,9l-16,10l-17,16l-16,13l-17,9l-16,14l-17,13l-16,11l-17,12l-17,10l-16,8l-17,7l-16,7l-17,10l-16,10l-17,8l-16,8l-17,8l-16,8l-17,7l-16,10l-17,11l-16,12l-17,11l-16,8l-17,11l-16,10l-17,10l-16,11l-17,7l-16,7l-17,11l-17,8l-16,5l-17,10l-16,11l-17,14l-16,8l-17,6l-16,6l-17,11l-16,9l-17,10l-16,10l-17,9l-16,8l-17,7l-16,8l-17,12l-16,12l-17,10l-16,7l-17,5l-16,8l-17,8l-16,13l-17,10l-17,10l-16,11l-17,8l-16,9l-17,10l-16,12l-17,15l-16,11l-17,9l-16,8l-17,2l-16,6l-17,9l-16,10l-17,6l-16,7l-17,12l-16,13l-17,11l-16,10l-17,10l-16,10l-17,8l-16,7l-17,8l-17,9l-16,12l-17,13l-16,13l-17,8l-16,13l-17,7l-16,6l-17,12l-16,11l-17,10l-16,9l-17,6l-16,7l-17,6l-16,10l-17,14l-16,14l-17,15l-16,13l-17,12l-16,14l-17,10l-17,10l-16,11l-17,12l-16,15l-17,15l-16,11l-17,13l-16,15l-17,15l-16,14l-17,7l-16,6l-17,16l-16,8l-17,10l-16,14l-17,11l-16,12l-17,12l-16,7l-17,10l-16,11l-17,14l-16,6l-17,13l-17,10l-16,7l-17,6l-16,6l-17,4l-16,7l-17,3l-16,2l-17,6l-16,4l-17,2l-16,5l-17,3l-16,4l-17,7l-16,2l-17,3l-16,6l-17,1l-16,2l-17,6l-16,-9l-17,2l-16,0l-17,-1l-17,4l-16,6l-17,7l-16,2l-17,4l-16,0l-17,1l-16,5l-17,4l-16,7l-17,6Z" fill="#ba4545"></path><path fill-opacity="0.188" stroke="none" d="M758,2695l17,2l16,2l17,-3l16,-2l17,-1l16,-1l17,-5l16,-6l17,-2l16,-7l17,-7l17,-5l16,-3l17,-5l16,-5l17,-3l16,-2l17,-3l16,-4l17,0l16,0l17,-5l16,-4l17,-2l16,-3l17,-2l16,-6l17,-8l16,-7l17,-8l16,-7l17,-8l16,-9l17,-7l16,-7l17,-10l17,-8l16,-8l17,-6l16,-9l17,-5l16,-5l17,-5l16,-10l17,-10l16,-9l17,-9l16,-12l17,-14l16,-12l17,-13l16,-16l17,-10l16,-13l17,-13l16,-16l17,-14l16,-13l17,-11l16,-10l17,-11l17,-11l16,-10l17,-13l16,-9l17,-11l16,-11l17,-9l16,-7l17,-8l16,-7l17,-10l16,-9l17,-12l16,-11l17,-7l16,-10l17,-8l16,-6l17,-9l16,-10l17,-9l16,-4l17,-6l17,-6l16,-7l17,-7l16,-6l17,-8l16,-8l17,-11l16,-9l17,-5l16,-4l17,-5l16,-5l17,-6l16,-9l17,-7l16,-7l17,-8l16,-8l17,-8l16,-8l17,-8l16,-7l17,-11l16,-12l17,-13l17,-10l16,-7l17,-7l16,-5l17,-9l16,-5l17,-6l16,-9l17,-8l16,-10l17,-11l16,-11l17,-9l16,-7l17,-15l16,-19l17,-11l16,-10l17,-11l16,-8l17,-8l16,-13l17,-14l16,-13l17,-11l17,-14l16,-13l17,-11l16,-12l17,-11l16,-12l17,-13l16,-9l17,-11l16,-10l17,-13l16,-19l17,-16l16,-11l17,-10l16,-14l17,-9l16,-12l17,-11l16,-17l17,-15l16,-7l17,-15l17,-18l16,-18l17,-18l16,-18l17,-14l16,-17l17,-18l16,-17l17,-16l16,-15l17,-16l16,-13l17,-13l16,-15l17,-12l16,-20l17,-16l16,-19l17,-13l16,-13l17,-13l16,-16l17,-14l16,-12l17,-10l17,-11l16,-10l17,-8l16,-6l17,-10l16,-5l17,-8l16,-4l17,-4l16,-5l17,-5l16,-2l17,-3l16,-5l17,-1l16,-3l17,1l16,-3l17,-1l16,-3l17,-3l16,-1l17,0l16,-2l17,-2l17,2l16,2l17,0l16,0l17,3l16,4l17,2l16,3l17,2l16,5l17,5l16,2l17,4l16,3l17,6l16,5l17,5l16,0l17,1l16,7l17,5l16,10l17,6l17,6l16,6l17,11l16,12l17,10l16,10l17,13l16,14l17,14l16,11l17,10l16,17l17,12l16,10l17,13l16,15l17,13l16,15l17,14l16,17l17,12l16,16l17,16l16,14l17,16l17,17l16,18l17,18l16,12l17,16l16,18l17,20l16,21l17,16l16,17l17,17l16,15l17,15l16,15l17,13l16,14l17,18l16,15l17,18l16,18l17,13l16,12l17,14l16,9l17,11l17,14l16,16l17,15l16,11l17,15l16,18l17,22l16,15l17,17l16,22l17,16l16,15l17,11l16,13l17,14l16,10l17,12l16,17l17,17l16,12l17,18l16,15l17,16l17,16l16,13l17,13l16,16l17,15l16,19l17,22l16,21l17,15l16,17l17,16l16,21l17,21l16,17l17,14l16,14l17,15l16,10l17,14l16,15l17,12l16,14l17,12l16,18l17,18l17,15l16,9l17,12l16,9l17,14l16,13l17,11l16,11l17,13l16,13l17,16l16,10l17,8l16,8l17,10l16,11l17,12l16,8l17,5l16,6l17,6l16,12l17,6l16,7l17,7l17,7l16,7l17,4l16,6l17,3l16,1l17,0l16,3l17,5l16,4l17,1l0,-339l-17,5l-16,-4l-17,-3l-16,0l-17,-2l-16,-8l-17,-4l-16,-6l-17,-6l-16,-3l-17,-4l-17,-3l-16,-8l-17,-6l-16,-3l-17,-5l-16,-7l-17,-5l-16,-9l-17,-13l-16,-14l-17,-13l-16,-11l-17,-12l-16,-15l-17,-15l-16,-15l-17,-13l-16,-16l-17,-11l-16,-15l-17,-19l-16,-10l-17,-12l-16,-13l-17,-15l-17,-13l-16,-17l-17,-18l-16,-17l-17,-14l-16,-16l-17,-17l-16,-11l-17,-16l-16,-14l-17,-19l-16,-18l-17,-18l-16,-18l-17,-16l-16,-17l-17,-16l-16,-15l-17,-15l-16,-14l-17,-14l-16,-15l-17,-17l-16,-15l-17,-19l-17,-14l-16,-14l-17,-13l-16,-17l-17,-17l-16,-18l-17,-13l-16,-13l-17,-11l-16,-12l-17,-13l-16,-16l-17,-16l-16,-18l-17,-19l-16,-20l-17,-15l-16,-17l-17,-16l-16,-16l-17,-15l-16,-16l-17,-14l-17,-12l-16,-14l-17,-16l-16,-12l-17,-18l-16,-16l-17,-15l-16,-15l-17,-14l-16,-14l-17,-14l-16,-12l-17,-11l-16,-9l-17,-12l-16,-13l-17,-16l-16,-15l-17,-16l-16,-13l-17,-10l-16,-12l-17,-10l-16,-10l-17,-10l-17,-8l-16,-11l-17,-13l-16,-10l-17,-8l-16,-11l-17,-14l-16,-12l-17,-9l-16,-10l-17,-7l-16,-9l-17,-7l-16,-10l-17,-8l-16,-7l-17,-7l-16,-9l-17,-7l-16,-6l-17,-9l-16,-9l-17,-5l-16,-5l-17,-3l-17,-5l-16,-7l-17,-4l-16,-3l-17,-5l-16,-5l-17,-6l-16,-1l-17,-2l-16,-2l-17,-7l-16,-5l-17,-3l-16,-2l-17,-3l-16,-6l-17,-3l-16,-2l-17,-1l-16,-4l-17,-2l-16,-3l-17,-2l-17,-1l-16,1l-17,-1l-16,0l-17,0l-16,0l-17,-2l-16,-4l-17,-1l-16,0l-17,0l-16,0l-17,0l-16,3l-17,0l-16,4l-17,1l-16,0l-17,5l-16,7l-17,5l-16,4l-17,5l-16,5l-17,7l-17,4l-16,8l-17,9l-16,10l-17,7l-16,7l-17,10l-16,7l-17,10l-16,7l-17,9l-16,8l-17,10l-16,11l-17,13l-16,16l-17,12l-16,14l-17,14l-16,11l-17,12l-16,9l-17,13l-16,13l-17,13l-17,9l-16,10l-17,11l-16,13l-17,12l-16,11l-17,11l-16,8l-17,7l-16,8l-17,11l-16,12l-17,10l-16,8l-17,13l-16,14l-17,12l-16,13l-17,11l-16,12l-17,9l-16,8l-17,9l-17,7l-16,8l-17,13l-16,17l-17,19l-16,12l-17,12l-16,5l-17,11l-16,12l-17,10l-16,6l-17,10l-16,8l-17,8l-16,9l-17,8l-16,12l-17,11l-16,10l-17,8l-16,12l-17,6l-16,6l-17,7l-17,8l-16,10l-17,12l-16,6l-17,9l-16,14l-17,13l-16,13l-17,8l-16,4l-17,-1l-16,5l-17,8l-16,11l-17,6l-16,6l-17,10l-16,13l-17,10l-16,9l-17,10l-16,11l-17,11l-16,7l-17,7l-17,4l-16,11l-17,10l-16,10l-17,10l-16,12l-17,11l-16,7l-17,7l-16,12l-17,10l-16,5l-17,6l-16,6l-17,11l-16,11l-17,14l-16,13l-17,14l-16,12l-17,12l-16,12l-17,9l-17,7l-16,12l-17,15l-16,15l-17,14l-16,15l-17,15l-16,16l-17,15l-16,9l-17,12l-16,11l-17,12l-16,14l-17,12l-16,13l-17,13l-16,12l-17,11l-16,12l-17,9l-16,11l-17,9l-16,10l-17,11l-17,9l-16,7l-17,8l-16,6l-17,7l-16,10l-17,9l-16,4l-17,3l-16,3l-17,1l-16,4l-17,7l-16,3l-17,8l-16,7l-17,2l-16,2l-17,1l-16,1l-17,3l-16,-2l-17,2l-16,-1l-17,2l-17,4l-16,8l-17,8l-16,3l-17,1l-16,1l-17,2l-16,2l-17,5l-16,5l-17,6Z" fill="#ba4545"></path><g clip-path="url(#plot-sample-bounds-scaled-2)"><path stroke-width="20" stroke="#ba4545" d="M758,2522l17,0l16,-2l17,-2l16,-1l17,-2l16,-2l17,-3l16,-4l17,-5l16,-6l17,-5l17,-2l16,-2l17,-4l16,-1l17,-3l16,-2l17,-4l16,-4l17,-2l16,-3l17,-6l16,-4l17,-4l16,-4l17,-2l16,-5l17,-7l16,-6l17,-6l16,-8l17,-7l16,-8l17,-9l16,-9l17,-9l17,-10l16,-9l17,-9l16,-10l17,-7l16,-9l17,-9l16,-11l17,-11l16,-12l17,-11l16,-13l17,-13l16,-11l17,-12l16,-14l17,-13l16,-13l17,-13l16,-14l17,-14l16,-14l17,-13l16,-11l17,-10l17,-10l16,-12l17,-13l16,-12l17,-12l16,-11l17,-10l16,-11l17,-7l16,-7l17,-8l16,-7l17,-11l16,-10l17,-9l16,-7l17,-9l16,-10l17,-8l16,-9l17,-9l16,-8l17,-7l17,-7l16,-8l17,-8l16,-9l17,-8l16,-7l17,-9l16,-11l17,-8l16,-6l17,-6l16,-7l17,-8l16,-8l17,-5l16,-6l17,-7l16,-11l17,-11l16,-10l17,-8l16,-8l17,-9l16,-12l17,-9l17,-9l16,-9l17,-8l16,-7l17,-7l16,-6l17,-8l16,-9l17,-10l16,-9l17,-10l16,-10l17,-9l16,-8l17,-12l16,-13l17,-11l16,-8l17,-10l16,-9l17,-12l16,-15l17,-12l16,-10l17,-10l17,-12l16,-11l17,-11l16,-12l17,-11l16,-12l17,-12l16,-9l17,-11l16,-11l17,-13l16,-14l17,-12l16,-10l17,-8l16,-10l17,-11l16,-10l17,-11l16,-14l17,-12l16,-9l17,-13l17,-14l16,-14l17,-14l16,-15l17,-13l16,-13l17,-16l16,-15l17,-13l16,-15l17,-14l16,-12l17,-12l16,-11l17,-10l16,-12l17,-13l16,-12l17,-11l16,-11l17,-12l16,-13l17,-13l16,-10l17,-7l17,-10l16,-7l17,-7l16,-7l17,-7l16,-5l17,-5l16,-4l17,-1l16,-5l17,-4l16,-2l17,-1l16,-2l17,-2l16,-1l17,0l16,0l17,0l16,-2l17,-2l16,0l17,0l16,0l17,0l17,0l16,2l17,2l16,3l17,2l16,3l17,4l16,3l17,3l16,4l17,3l16,4l17,3l16,4l17,3l16,5l17,5l16,2l17,3l16,6l17,5l16,8l17,5l17,6l16,6l17,9l16,9l17,9l16,9l17,11l16,11l17,10l16,11l17,12l16,12l17,9l16,10l17,11l16,12l17,11l16,13l17,15l16,13l17,11l16,12l17,14l16,13l17,13l17,14l16,15l17,13l16,14l17,13l16,15l17,17l16,18l17,16l16,16l17,13l16,11l17,12l16,15l17,14l16,14l17,14l16,15l17,16l16,17l17,13l16,14l17,14l16,13l17,13l17,13l16,15l17,16l16,14l17,15l16,16l17,18l16,17l17,18l16,18l17,17l16,15l17,13l16,12l17,12l16,11l17,15l16,16l17,18l16,14l17,16l16,15l17,16l17,16l16,14l17,14l16,16l17,15l16,16l17,16l16,17l17,16l16,15l17,16l16,18l17,19l16,16l17,14l16,14l17,13l16,12l17,14l16,14l17,14l16,16l17,15l16,15l17,15l17,13l16,10l17,11l16,10l17,13l16,13l17,12l16,14l17,12l16,13l17,15l16,13l17,12l16,11l17,11l16,12l17,11l16,8l17,6l16,7l17,8l16,7l17,8l16,8l17,7l17,6l16,6l17,4l16,6l17,4l16,4l17,2l16,3l17,4l16,4l17,1" fill="none" stroke-opacity="1.0"></path></g><g clip-path="url(#plot-sample-bounds-scaled-2)"><path stroke-width="10" stroke="#4646b9" stroke-dasharray="10 20" d="M758,3102l17,-1l16,1l17,2l16,0l17,1l16,1l17,-1l16,-2l17,-5l16,-5l17,-5l17,0l16,-1l17,-1l16,0l17,-2l16,-1l17,-3l16,-2l17,-1l16,0l17,-1l16,-1l17,-2l16,0l17,-2l16,-3l17,-5l16,-6l17,-4l16,-7l17,-6l16,-7l17,-8l16,-8l17,-7l17,-10l16,-9l17,-6l16,-7l17,-5l16,-6l17,-6l16,-9l17,-10l16,-10l17,-9l16,-13l17,-11l16,-13l17,-11l16,-12l17,-13l16,-13l17,-10l16,-11l17,-11l16,-14l17,-12l16,-9l17,-10l17,-8l16,-8l17,-8l16,-9l17,-10l16,-10l17,-8l16,-9l17,-8l16,-6l17,-7l16,-6l17,-8l16,-7l17,-6l16,-5l17,-7l16,-9l17,-8l16,-7l17,-6l16,-7l17,-5l17,-7l16,-7l17,-6l16,-6l17,-5l16,-3l17,-7l16,-10l17,-7l16,-7l17,-8l16,-8l17,-8l16,-7l17,-6l16,-6l17,-8l16,-9l17,-8l16,-10l17,-11l16,-8l17,-10l16,-10l17,-9l17,-9l16,-8l17,-8l16,-9l17,-9l16,-8l17,-5l16,-7l17,-10l16,-11l17,-13l16,-12l17,-10l16,-9l17,-12l16,-10l17,-8l16,-9l17,-7l16,-10l17,-11l16,-14l17,-13l16,-11l17,-11l17,-11l16,-10l17,-10l16,-9l17,-12l16,-11l17,-8l16,-9l17,-10l16,-12l17,-10l16,-11l17,-10l16,-11l17,-8l16,-7l17,-8l16,-6l17,-8l16,-9l17,-9l16,-9l17,-10l17,-10l16,-12l17,-12l16,-10l17,-10l16,-8l17,-12l16,-14l17,-11l16,-11l17,-12l16,-11l17,-10l16,-9l17,-12l16,-11l17,-11l16,-10l17,-10l16,-10l17,-10l16,-10l17,-11l16,-11l17,-9l17,-11l16,-8l17,-6l16,-9l17,-8l16,-8l17,-7l16,-5l17,-5l16,-4l17,-4l16,-4l17,-5l16,-1l17,-4l16,-2l17,-4l16,-1l17,-2l16,0l17,-2l16,-1l17,1l16,0l17,-1l17,1l16,1l17,-1l16,0l17,1l16,2l17,2l16,2l17,1l16,2l17,2l16,3l17,6l16,5l17,2l16,4l17,4l16,4l17,5l16,5l17,6l16,5l17,7l17,7l16,5l17,7l16,7l17,8l16,7l17,9l16,11l17,8l16,10l17,9l16,11l17,11l16,10l17,11l16,12l17,12l16,14l17,14l16,13l17,12l16,11l17,14l16,13l17,12l17,13l16,15l17,11l16,12l17,12l16,13l17,15l16,17l17,14l16,16l17,16l16,13l17,12l16,13l17,13l16,14l17,14l16,15l17,14l16,16l17,15l16,14l17,13l16,12l17,10l17,14l16,13l17,14l16,14l17,12l16,13l17,11l16,12l17,14l16,16l17,16l16,16l17,13l16,11l17,11l16,9l17,9l16,13l17,13l16,13l17,12l16,11l17,15l17,14l16,13l17,11l16,11l17,11l16,12l17,14l16,15l17,14l16,13l17,15l16,14l17,16l16,13l17,15l16,14l17,11l16,11l17,10l16,12l17,10l16,10l17,14l16,13l17,12l17,11l16,9l17,9l16,8l17,12l16,8l17,7l16,11l17,10l16,10l17,10l16,9l17,10l16,8l17,8l16,9l17,8l16,8l17,4l16,6l17,7l16,5l17,7l16,8l17,7l17,6l16,6l17,5l16,4l17,2l16,2l17,1l16,3l17,6l16,5l17,1" fill="none" stroke-opacity="1.0"></path></g><g clip-path="url(#plot-sample-bounds-scaled-2)"><path stroke-width="10" stroke="#ba4545" stroke-dasharray="10 20" d="M758,2620l17,-2l16,-2l17,-3l16,-2l17,-3l16,-2l17,-4l16,-4l17,-6l16,-7l17,-5l17,-3l16,-2l17,-3l16,-1l17,-3l16,-2l17,-5l16,-4l17,-3l16,-3l17,-6l16,-3l17,-3l16,-5l17,-3l16,-6l17,-8l16,-6l17,-7l16,-8l17,-8l16,-7l17,-9l16,-10l17,-10l17,-11l16,-10l17,-9l16,-11l17,-8l16,-9l17,-10l16,-13l17,-13l16,-13l17,-13l16,-14l17,-14l16,-12l17,-13l16,-16l17,-14l16,-16l17,-15l16,-14l17,-15l16,-15l17,-15l16,-12l17,-10l17,-11l16,-13l17,-14l16,-12l17,-13l16,-12l17,-11l16,-11l17,-9l16,-7l17,-8l16,-9l17,-11l16,-10l17,-9l16,-8l17,-9l16,-10l17,-8l16,-9l17,-11l16,-7l17,-7l17,-7l16,-8l17,-8l16,-9l17,-8l16,-7l17,-10l16,-10l17,-9l16,-6l17,-6l16,-7l17,-8l16,-8l17,-6l16,-6l17,-8l16,-11l17,-11l16,-10l17,-8l16,-9l17,-8l16,-12l17,-10l17,-8l16,-10l17,-7l16,-7l17,-7l16,-6l17,-8l16,-8l17,-11l16,-8l17,-11l16,-9l17,-9l16,-8l17,-11l16,-13l17,-10l16,-8l17,-10l16,-7l17,-11l16,-14l17,-12l16,-10l17,-10l17,-11l16,-10l17,-11l16,-11l17,-10l16,-11l17,-11l16,-8l17,-10l16,-11l17,-12l16,-13l17,-11l16,-7l17,-9l16,-9l17,-9l16,-9l17,-9l16,-13l17,-10l16,-9l17,-11l17,-11l16,-13l17,-12l16,-13l17,-11l16,-12l17,-14l16,-13l17,-12l16,-11l17,-12l16,-11l17,-10l16,-10l17,-9l16,-11l17,-11l16,-11l17,-9l16,-10l17,-11l16,-11l17,-10l16,-9l17,-7l17,-9l16,-7l17,-5l16,-6l17,-6l16,-5l17,-5l16,-4l17,-3l16,-4l17,-3l16,-3l17,-1l16,-2l17,-2l16,-1l17,-1l16,0l17,-1l16,0l17,-2l16,0l17,0l16,-1l17,0l17,1l16,2l17,1l16,1l17,3l16,2l17,2l16,3l17,3l16,3l17,2l16,4l17,4l16,4l17,2l16,4l17,5l16,3l17,4l16,4l17,5l16,7l17,5l17,5l16,4l17,8l16,9l17,7l16,7l17,10l16,9l17,10l16,9l17,9l16,11l17,9l16,9l17,9l16,11l17,10l16,12l17,13l16,11l17,10l16,10l17,12l16,12l17,12l17,12l16,13l17,12l16,11l17,13l16,13l17,16l16,15l17,15l16,15l17,12l16,10l17,12l16,13l17,13l16,13l17,13l16,14l17,16l16,15l17,13l16,13l17,14l16,12l17,12l17,12l16,14l17,16l16,14l17,13l16,17l17,17l16,16l17,17l16,19l17,16l16,15l17,13l16,12l17,12l16,12l17,14l16,18l17,17l16,14l17,16l16,15l17,17l17,15l16,15l17,15l16,16l17,15l16,17l17,17l16,18l17,17l16,17l17,16l16,20l17,20l16,18l17,16l16,16l17,15l16,12l17,15l16,15l17,16l16,16l17,17l16,17l17,16l17,14l16,12l17,13l16,10l17,14l16,16l17,12l16,16l17,14l16,15l17,17l16,15l17,14l16,11l17,13l16,13l17,13l16,8l17,6l16,8l17,8l16,7l17,8l16,9l17,8l17,6l16,6l17,6l16,6l17,3l16,4l17,2l16,4l17,4l16,5l17,1" fill="none" stroke-opacity="1.0"></path></g><line stroke-width="10" stroke="#000" x2="6780" y1="2624.5" x1="750" fill="none" y2="2624.5" stroke-opacity="0.25098039215686274"></line></g><g><rect fill-opacity="0.063" stroke="none" y="5" x="339.7" height="380" width="157" fill="#f00"></rect><text y="24.5" text-anchor="middle" x="418.2">hot</text></g><g><rect fill-opacity="0.063" stroke="none" y="5" x="613.1" height="380" width="64.9" fill="#00f"></rect><text y="24.5" text-anchor="middle" x="645.6">cold</text></g><g><rect fill-opacity="0.063" stroke="none" y="5" x="75" height="380" width="89.9" fill="#00f"></rect><text y="24.5" text-anchor="middle" x="120">cold</text></g><g transform="scale(0.1)"></g><g stroke-width="1" stroke="#000" fill="none" stroke-opacity="0.072"><line x2="126.2" y1="30" x1="126.2" y2="390" stroke-opacity="0.12"></line><line x2="172.5" y1="30" x1="172.5" y2="390" stroke-opacity="0.12"></line><line x2="223.7" y1="30" x1="223.7" y2="390" stroke-opacity="0.12"></line><line x2="273.2" y1="30" x1="273.2" y2="390" stroke-opacity="0.12"></line><line x2="324.5" y1="30" x1="324.5" y2="390" stroke-opacity="0.12"></line><line x2="374" y1="30" x1="374" y2="390" stroke-opacity="0.12"></line><line x2="425.2" y1="30" x1="425.2" y2="390" stroke-opacity="0.12"></line><line x2="476.4" y1="30" x1="476.4" y2="390" stroke-opacity="0.12"></line><line x2="526" y1="30" x1="526" y2="390" stroke-opacity="0.12"></line><line x2="577.2" y1="30" x1="577.2" y2="390" stroke-opacity="0.12"></line><line x2="626.8" y1="30" x1="626.8" y2="390" stroke-opacity="0.12"></line><line x2="681" y1="360" x1="72" y2="360"></line><line x2="681" y1="329.5" x1="72" y2="329.5"></line><line x2="681" y1="299" x1="72" y2="299"></line><line x2="681" y1="268.5" x1="72" y2="268.5"></line><line x2="681" y1="238" x1="72" y2="238"></line><line x2="681" y1="207.5" x1="72" y2="207.5"></line><line x2="681" y1="177" x1="72" y2="177"></line><line x2="681" y1="146.5" x1="72" y2="146.5"></line><line x2="681" y1="116" x1="72" y2="116"></line><line x2="681" y1="85.5" x1="72" y2="85.5"></line><line x2="681" y1="55" x1="72" y2="55"></line></g><g><rect fill-opacity="0.004" y="30" x="75" height="355" width="51.2" fill="#fff"></rect><text stroke="none" y="401.5" text-anchor="middle" x="100.6">Jan</text></g><g><rect fill-opacity="0.004" y="30" x="126.2" height="355" width="46.3" fill="#fff"></rect><text stroke="none" y="401.5" text-anchor="middle" x="149.3">Feb</text></g><g><rect fill-opacity="0.004" y="30" x="172.5" height="355" width="51.2" fill="#fff"></rect><text stroke="none" y="401.5" text-anchor="middle" x="198.1">Mar</text></g><g><rect fill-opacity="0.004" y="30" x="223.7" height="355" width="49.6" fill="#fff"></rect><text stroke="none" y="401.5" text-anchor="middle" x="248.5">Apr</text></g><g><rect fill-opacity="0.004" y="30" x="273.2" height="355" width="51.2" fill="#fff"></rect><text stroke="none" y="401.5" text-anchor="middle" x="298.9">May</text></g><g><rect fill-opacity="0.004" y="30" x="324.5" height="355" width="49.6" fill="#fff"></rect><text stroke="none" y="401.5" text-anchor="middle" x="349.2">Jun</text></g><g><rect fill-opacity="0.004" y="30" x="374" height="355" width="51.2" fill="#fff"></rect><text stroke="none" y="401.5" text-anchor="middle" x="399.6">Jul</text></g><g><rect fill-opacity="0.004" y="30" x="425.2" height="355" width="51.2" fill="#fff"></rect><text stroke="none" y="401.5" text-anchor="middle" x="450.8">Aug</text></g><g><rect fill-opacity="0.004" y="30" x="476.4" height="355" width="49.6" fill="#fff"></rect><text stroke="none" y="401.5" text-anchor="middle" x="501.2">Sep</text></g><g><rect fill-opacity="0.004" y="30" x="526" height="355" width="51.2" fill="#fff"></rect><text stroke="none" y="401.5" text-anchor="middle" x="551.6">Oct</text></g><g><rect fill-opacity="0.004" y="30" x="577.2" height="355" width="49.6" fill="#fff"></rect><text stroke="none" y="401.5" text-anchor="middle" x="602">Nov</text></g><g><rect fill-opacity="0.004" y="30" x="626.8" height="355" width="51.2" fill="#fff"></rect><text stroke="none" y="401.5" text-anchor="middle" x="652.4">Dec</text></g><g stroke="none" fill="#666"><text y="365.2" text-anchor="end" x="71">0°F</text><text y="365.2" x="682">0°F</text><text y="334.7" text-anchor="end" x="71">10°F</text><text y="334.7" x="682">10°F</text><text y="304.2" text-anchor="end" x="71">20°F</text><text y="304.2" x="682">20°F</text><text y="273.7" text-anchor="end" x="71">30°F</text><text y="273.7" x="682">30°F</text><text y="243.2" text-anchor="end" x="71">40°F</text><text y="243.2" x="682">40°F</text><text y="212.7" text-anchor="end" x="71">50°F</text><text y="212.7" x="682">50°F</text><text y="182.2" text-anchor="end" x="71">60°F</text><text y="182.2" x="682">60°F</text><text y="151.7" text-anchor="end" x="71">70°F</text><text y="151.7" x="682">70°F</text><text y="121.2" text-anchor="end" x="71">80°F</text><text y="121.2" x="682">80°F</text><text y="90.7" text-anchor="end" x="71">90°F</text><text y="90.7" x="682">90°F</text><text y="60.2" text-anchor="end" x="71">100°F</text><text y="60.2" x="682">100°F</text></g><g font-family="sans-serif" text-decoration="none" font-style="normal" font-size="15" font-weight="normal"><g font-family="sans-serif" stroke="none" text-decoration="none" font-style="normal" font-size="15" font-weight="normal"><g stroke-width="4" stroke="#fff" opacity="0.4" fill="#fff" stroke-linejoin="bevel"><text y="226.3" text-anchor="middle" x="96.3">Jan 7</text><text y="243.8" text-anchor="middle" x="96.3">36°F</text></g><text y="226.3" text-anchor="middle" x="96.3">Jan 7</text><text y="243.8" text-anchor="middle" x="96.3">36°F</text></g></g><circle stroke="none" cy="251.3" cx="85.7" r="2" fill="#000"></circle><g font-family="sans-serif" text-decoration="none" font-style="normal" font-size="15" font-weight="normal"><g font-family="sans-serif" stroke="none" text-decoration="none" font-style="normal" font-size="15" font-weight="normal"><g stroke-width="4" stroke="#fff" opacity="0.4" fill="#fff" stroke-linejoin="bevel"><text y="53.1" text-anchor="middle" x="411.2">Jul 23</text><text y="70.6" text-anchor="middle" x="411.2">93°F</text></g><text y="53.1" text-anchor="middle" x="411.2">Jul 23</text><text y="70.6" text-anchor="middle" x="411.2">93°F</text></g></g><circle stroke="none" cy="77.1" cx="411.2" r="2" fill="#000"></circle><g font-family="sans-serif" text-decoration="none" font-style="normal" font-size="15" font-weight="normal"><g font-family="sans-serif" stroke="none" text-decoration="none" font-style="normal" font-size="15" font-weight="normal"><g opacity="0.4"><text stroke-width="4" stroke="#fff" y="308.1" text-anchor="middle" x="96.3" stroke-linejoin="bevel" fill="#fff">23°F</text></g><text y="308.1" text-anchor="middle" x="96.3">23°F</text></g></g><circle stroke="none" cy="290.2" cx="85.7" r="2" fill="#000"></circle><g font-family="sans-serif" text-decoration="none" font-style="normal" font-size="15" font-weight="normal"><g font-family="sans-serif" stroke="none" text-decoration="none" font-style="normal" font-size="15" font-weight="normal"><g opacity="0.4"><text stroke-width="4" stroke="#fff" y="171.8" text-anchor="middle" x="411.2" stroke-linejoin="bevel" fill="#fff">67°F</text></g><text y="171.8" text-anchor="middle" x="411.2">67°F</text></g></g><circle stroke="none" cy="154.8" cx="411.2" r="2" fill="#000"></circle><g font-family="sans-serif" text-decoration="none" font-style="normal" font-size="15" font-weight="normal"><g font-family="sans-serif" stroke="none" text-decoration="none" font-style="normal" font-size="15" font-weight="normal"><g stroke-width="4" stroke="#fff" opacity="0.4" fill="#fff" stroke-linejoin="bevel"><text y="88.1" text-anchor="middle" x="339.7">Jun 10</text><text y="105.6" text-anchor="middle" x="339.7">81°F</text></g><text y="88.1" text-anchor="middle" x="339.7">Jun 10</text><text y="105.6" text-anchor="middle" x="339.7">81°F</text></g></g><circle stroke="none" cy="112.1" cx="339.7" r="2" fill="#000"></circle><g font-family="sans-serif" text-decoration="none" font-style="normal" font-size="15" font-weight="normal"><g font-family="sans-serif" stroke="none" text-decoration="none" font-style="normal" font-size="15" font-weight="normal"><g stroke-width="4" stroke="#fff" opacity="0.4" fill="#fff" stroke-linejoin="bevel"><text y="88.1" text-anchor="middle" x="496.7">Sep 13</text><text y="105.6" text-anchor="middle" x="496.7">81°F</text></g><text y="88.1" text-anchor="middle" x="496.7">Sep 13</text><text y="105.6" text-anchor="middle" x="496.7">81°F</text></g></g><circle stroke="none" cy="112.1" cx="496.7" r="2" fill="#000"></circle><g font-family="sans-serif" text-decoration="none" font-style="normal" font-size="15" font-weight="normal"><g font-family="sans-serif" stroke="none" text-decoration="none" font-style="normal" font-size="15" font-weight="normal"><g stroke-width="4" stroke="#fff" opacity="0.4" fill="#fff" stroke-linejoin="bevel"><text y="193.2" text-anchor="middle" x="613.1">Nov 22</text><text y="210.7" text-anchor="middle" x="613.1">47°F</text></g><text y="193.2" text-anchor="middle" x="613.1">Nov 22</text><text y="210.7" text-anchor="middle" x="613.1">47°F</text></g></g><circle stroke="none" cy="217.2" cx="613.1" r="2" fill="#000"></circle><g font-family="sans-serif" text-decoration="none" font-style="normal" font-size="15" font-weight="normal"><g font-family="sans-serif" stroke="none" text-decoration="none" font-style="normal" font-size="15" font-weight="normal"><g stroke-width="4" stroke="#fff" opacity="0.4" fill="#fff" stroke-linejoin="bevel"><text y="193.2" text-anchor="middle" x="164.9">Feb 24</text><text y="210.7" text-anchor="middle" x="164.9">47°F</text></g><text y="193.2" text-anchor="middle" x="164.9">Feb 24</text><text y="210.7" text-anchor="middle" x="164.9">47°F</text></g></g><circle stroke="none" cy="217.2" cx="164.9" r="2" fill="#000"></circle><g font-family="sans-serif" text-decoration="none" font-style="normal" font-size="15" font-weight="normal"><g font-family="sans-serif" stroke="none" text-decoration="none" font-style="normal" font-size="15" font-weight="normal"><g opacity="0.4"><text stroke-width="4" stroke="#fff" y="205.7" text-anchor="middle" x="339.7" stroke-linejoin="bevel" fill="#fff">56°F</text></g><text y="205.7" text-anchor="middle" x="339.7">56°F</text></g></g><circle stroke="none" cy="188.8" cx="339.7" r="2" fill="#000"></circle><g font-family="sans-serif" text-decoration="none" font-style="normal" font-size="15" font-weight="normal"><g font-family="sans-serif" stroke="none" text-decoration="none" font-style="normal" font-size="15" font-weight="normal"><g opacity="0.4"><text stroke-width="4" stroke="#fff" y="202.8" text-anchor="middle" x="496.7" stroke-linejoin="bevel" fill="#fff">57°F</text></g><text y="202.8" text-anchor="middle" x="496.7">57°F</text></g></g><circle stroke="none" cy="185.9" cx="496.7" r="2" fill="#000"></circle><g font-family="sans-serif" text-decoration="none" font-style="normal" font-size="15" font-weight="normal"><g font-family="sans-serif" stroke="none" text-decoration="none" font-style="normal" font-size="15" font-weight="normal"><g opacity="0.4"><text stroke-width="4" stroke="#fff" y="282.2" text-anchor="middle" x="613.1" stroke-linejoin="bevel" fill="#fff">31°F</text></g><text y="282.2" text-anchor="middle" x="613.1">31°F</text></g></g><circle stroke="none" cy="265.3" cx="613.1" r="2" fill="#000"></circle><g font-family="sans-serif" text-decoration="none" font-style="normal" font-size="15" font-weight="normal"><g font-family="sans-serif" stroke="none" text-decoration="none" font-style="normal" font-size="15" font-weight="normal"><g opacity="0.4"><text stroke-width="4" stroke="#fff" y="284.8" text-anchor="middle" x="164.9" stroke-linejoin="bevel" fill="#fff">30°F</text></g><text y="284.8" text-anchor="middle" x="164.9">30°F</text></g></g><circle stroke="none" cy="267.9" cx="164.9" r="2" fill="#000"></circle></svg>